<svg width="40" height="40" viewBox="0 0 40 40" fill="none" xmlns="http://www.w3.org/2000/svg">
<mask id="mask0_82_192" style="mask-type:luminance" maskUnits="userSpaceOnUse" x="0" y="0" width="40" height="40">
<path d="M0 3.8147e-06H40V40H0V3.8147e-06Z" fill="white"/>
</mask>
<g mask="url(#mask0_82_192)">
<path d="M15.7312 15.4352C15.6102 15.357 15.4663 15.3125 15.3125 15.3125C14.8812 15.3125 14.5312 15.6625 14.5312 16.0938C14.5312 16.2984 14.6101 16.4852 14.7391 16.6242C14.882 16.7789 15.0859 16.875 15.3125 16.875C15.7437 16.875 16.0937 16.525 16.0937 16.0938C16.0937 15.8164 15.9492 15.5734 15.7312 15.4352Z" fill="#F7F7F8"/>
<path d="M20 0.78125V5.9375" stroke="#F7F7F8" stroke-width="2" stroke-linecap="round" stroke-linejoin="round"/>
<path d="M20 34.0625V39.2188" stroke="#F7F7F8" stroke-width="2" stroke-linecap="round" stroke-linejoin="round"/>
<path d="M5.17896 6.74143L8.4938 10.0563" stroke="#F7F7F8" stroke-width="2" stroke-linecap="round" stroke-linejoin="round"/>
<path d="M31.5063 30.725L34.8212 34.0399" stroke="#F7F7F8" stroke-width="2" stroke-linecap="round" stroke-linejoin="round"/>
<path d="M34.8212 6.74143L31.5063 10.0563" stroke="#F7F7F8" stroke-width="2" stroke-linecap="round" stroke-linejoin="round"/>
<path d="M8.4938 30.725L5.17896 34.0399" stroke="#F7F7F8" stroke-width="2" stroke-linecap="round" stroke-linejoin="round"/>
<path d="M37.1875 20C37.1875 20 30.3555 30.1562 20 30.1562C9.64453 30.1562 2.8125 20 2.8125 20C2.8125 20 9.64453 9.84375 20 9.84375C30.3555 9.84375 37.1875 20 37.1875 20Z" stroke="#F7F7F8" stroke-width="2" stroke-linecap="round" stroke-linejoin="round"/>
<path d="M17.7664 14.1609C17.7945 14.15 17.8227 14.1398 17.8508 14.1297C17.882 14.118 17.9133 14.107 17.9445 14.0961C17.9727 14.0859 18.0008 14.0766 18.0297 14.0672C18.0664 14.0547 18.1047 14.0422 18.1422 14.0305C18.1906 14.0156 18.2391 14.0008 18.2883 13.9875C18.3359 13.9734 18.3844 13.9602 18.4336 13.9477C18.4852 13.9344 18.5366 13.9219 18.5883 13.9102C18.6367 13.8992 18.6844 13.8883 18.7328 13.8789C18.7719 13.8703 18.8109 13.8625 18.8508 13.8555C18.8852 13.8492 18.9195 13.843 18.9539 13.8375C18.9726 13.8336 18.9921 13.8305 19.0116 13.8281C19.0469 13.8219 19.082 13.8172 19.1172 13.8125C19.1266 13.8109 19.1352 13.8094 19.1445 13.8086C19.1742 13.8039 19.2047 13.8 19.2352 13.7961C19.268 13.7922 19.3008 13.7883 19.3336 13.7852L19.3805 13.7805C19.4141 13.7766 19.4484 13.7734 19.482 13.7711C19.4999 13.7695 19.518 13.768 19.5359 13.7672C19.5585 13.7648 19.582 13.7633 19.6047 13.7625C19.6383 13.7602 19.6726 13.7586 19.7062 13.757C19.75 13.7547 19.7937 13.7531 19.8383 13.7523C19.8914 13.7508 19.946 13.75 20 13.75C23.4516 13.75 26.25 16.5484 26.25 20C26.25 21.0789 25.9766 22.0938 25.4953 22.9789C25.4477 23.0664 25.3984 23.1531 25.3469 23.2375C25.3202 23.282 25.293 23.325 25.2648 23.3687C25.2148 23.4469 25.1633 23.5234 25.1102 23.5992C25.1047 23.607 25.0991 23.6141 25.0937 23.6219C24.9797 23.7828 24.8578 23.9383 24.728 24.0867C24.6304 24.2 24.5281 24.3102 24.4218 24.4164C24.3258 24.5125 24.2265 24.6062 24.1242 24.6953C23.6953 25.0727 23.2148 25.3922 22.6937 25.6406C22.6078 25.682 22.521 25.7211 22.4327 25.7586C22.2461 25.8375 22.0539 25.9078 21.8586 25.9687C21.6625 26.0297 21.4633 26.0812 21.2594 26.1227C20.8523 26.2062 20.4312 26.25 20 26.25C16.5484 26.25 13.75 23.4516 13.75 20C13.75 19.9461 13.7508 19.8922 13.7523 19.8391C13.7531 19.7953 13.7546 19.7523 13.757 19.7086C13.7586 19.668 13.7609 19.6273 13.7633 19.5875C13.7641 19.5758 13.7648 19.5641 13.7656 19.5523C13.7688 19.5148 13.771 19.4773 13.775 19.4398C13.7758 19.4305 13.7766 19.4219 13.7773 19.4125C13.7812 19.368 13.7859 19.3234 13.7914 19.2797V19.2781C13.7968 19.2313 13.8023 19.1844 13.8094 19.1375C13.8141 19.1023 13.8187 19.0672 13.825 19.032C13.8312 18.9852 13.839 18.9398 13.8477 18.8938C13.8491 18.8813 13.8516 18.8695 13.8539 18.857" stroke="#F7F7F8" stroke-width="2" stroke-linecap="round" stroke-linejoin="round"/>
<path d="M20 22.3438C18.7078 22.3438 17.6562 21.2922 17.6562 20C17.6562 18.7078 18.7078 17.6562 20 17.6562C21.2922 17.6562 22.3438 18.7078 22.3438 20C22.3438 21.2922 21.2922 22.3438 20 22.3438Z" stroke="#F7F7F8" stroke-width="2" stroke-linecap="round" stroke-linejoin="round"/>
</g>
</svg>
